<svg xmlns="http://www.w3.org/2000/svg" viewBox="0 0 80 48" fill="none">
  <path d="M22.8 28.4c-2.5 1.8-6.1 2.8-9.2 2.8-4.4 0-8.3-1.6-11.3-4.3-.2-.2 0-.5.3-.3 3.2 1.9 7.2 3 11.3 3 2.8 0 5.8-.6 8.6-1.8.4-.2.8.3.3.6z" fill="#FF9900"/>
  <path d="M24.2 26.8c-.3-.4-2.2-.2-3-.1-.3 0-.3-.2-.1-.4 1.5-1 3.9-.7 4.2-.4.3.4-.1 2.9-1.5 4.1-.2.2-.4.1-.3-.1.3-.8 1-2.7.7-3.1z" fill="#FF9900"/>
  <path d="M21.3 17.1v-1.3c0-.2.1-.3.3-.3h5.8c.2 0 .3.1.3.3v1.1c0 .2-.2.4-.5.8l-3 4.3c1.1 0 2.3.1 3.3.7.2.1.3.3.3.6v1.4c0 .2-.2.4-.5.3-1.9-1-4.5-1.1-6.6 0-.2.1-.4-.1-.4-.3v-1.3c0-.2 0-.5.2-.8l3.5-5h-3c-.2 0-.3-.1-.3-.3zM8.7 25.1H6.8c-.2 0-.3-.1-.3-.3V15.9c0-.2.2-.3.3-.3h1.8c.2 0 .3.1.3.3v1.2h0c.3-.9 1-1.6 2-1.6 1 0 1.7.7 2 1.6.3-.9 1.1-1.6 2.1-1.6.6 0 1.3.3 1.7.8.5.6.4 1.5.4 2.3v6.2c0 .2-.2.3-.3.3h-1.9c-.2 0-.3-.2-.3-.3v-5.2c0-.3 0-1.1-.1-1.4-.1-.5-.4-.7-.8-.7-.3 0-.7.2-.8.6-.2.4-.1 1.1-.1 1.5v5.2c0 .2-.2.3-.3.3h-1.9c-.2 0-.3-.2-.3-.3v-5.2c0-.8.1-2.1-.9-2.1s-1 1.2-1 2.1v5.2c0 .2-.2.3-.4.3zM33.3 15.5c2.8 0 4.3 2.4 4.3 5.5 0 3-1.7 5.3-4.3 5.3-2.7 0-4.2-2.4-4.2-5.4 0-3 1.5-5.4 4.2-5.4zm0 2c-1.4 0-1.5 1.9-1.5 3.1s0 3.7 1.5 3.7c1.4 0 1.5-2 1.5-3.3 0-.8 0-1.8-.2-2.6-.2-.7-.7-1-1.3-1zM42.4 25.1h-1.9c-.2 0-.3-.2-.3-.3V15.9c0-.2.2-.3.4-.3h1.7c.2 0 .3.1.3.3v1.3h0c.4-1.2 1-1.7 2.1-1.7.7 0 1.3.2 1.7.9.4.6.4 1.6.4 2.3v6.2c0 .2-.2.3-.3.3h-1.9c-.2 0-.3-.2-.3-.3V19.6c0-.8.1-2-.9-2-.3 0-.7.2-.9.6-.2.5-.2 1-.2 1.5v5.1c0 .2-.2.3-.4.3z" fill="currentColor"/>
</svg>
