<svg width="231" height="231" viewBox="0 0 231 231" fill="none" xmlns="http://www.w3.org/2000/svg">
<path d="M72.339 153.457C85.901 139.895 93.524 121.481 93.524 102.303C93.524 83.125 85.894 64.71 72.339 51.1481L21.1855 0C7.6302 13.5622 0 31.9766 0 51.1547C0 70.333 7.6302 88.747 21.1855 102.309L72.332 153.457H72.339Z" fill="#1C3C3C"/>
<path d="M179.382 158.19C165.827 144.634 147.406 137.004 128.235 137.004C109.064 137.004 90.644 144.634 77.082 158.19L128.235 209.345C141.791 222.9 160.211 230.531 179.388 230.531C198.566 230.531 216.98 222.9 230.542 209.345L179.388 158.19H179.382Z" fill="#1C3C3C"/>
<path d="M21.319 209.23C34.8808 222.786 53.2947 230.416 72.472 230.416V158.075H0.127C0.1335 177.253 7.7571 195.668 21.319 209.23Z" fill="#1C3C3C"/>
<path d="M199.118 82.563C185.556 69.007 167.142 61.37 147.958 61.377C128.78 61.377 110.367 69.007 96.805 82.57L147.958 133.724L199.118 82.563Z" fill="#1C3C3C"/>
</svg>
