<svg xmlns="http://www.w3.org/2000/svg" viewBox="0 0 100 100" fill="currentColor">
  <!-- O: outer ring -->
  <path d="M50 0C22.4 0 0 22.4 0 50s22.4 50 50 50 50-22.4 50-50S77.6 0 50 0zm0 10c22.1 0 40 17.9 40 40S72.1 90 50 90 10 72.1 10 50 27.9 10 50 10z"/>
  <!-- C: outer C -->
  <path d="M50 20C33.4 20 20 33.4 20 50s13.4 30 30 30c9.2 0 17.4-4.1 22.9-10.6l-7.4-5.8C61.6 68.2 56.2 70 50 70c-11 0-20-9-20-20s9-20 20-20c6.2 0 11.6 1.8 15.5 6.4l7.4-5.8C67.4 24.1 59.2 20 50 20z"/>
  <!-- C: inner C -->
  <path d="M50 34C41.2 34 34 41.2 34 50s7.2 16 16 16c5 0 9.4-2.3 12.4-5.8l-7-5.4C53.8 56.8 52 58 50 58c-4.4 0-8-3.6-8-8s3.6-8 8-8c2 0 3.8 1.2 5.4 3.2l7-5.4C59.4 36.3 55 34 50 34z"/>
</svg>
